<svg width="281" height="293" viewBox="0 0 281 293" fill="none" xmlns="http://www.w3.org/2000/svg">
<circle cx="140.5" cy="152.5" r="140.5" fill="#ED3833"/>
<path d="M79.9376 209.5C77.9711 209.5 76.375 211.096 76.375 213.063V223.75C76.375 225.716 74.7719 227.312 72.8124 227.312C70.8529 227.312 69.2498 225.716 69.2498 223.75V213.062C69.2498 211.096 67.6537 209.5 65.6872 209.5C63.7207 209.5 62.1246 211.096 62.1246 213.062V223.75C62.1246 229.642 66.9196 234.437 72.8121 234.437C78.7045 234.437 83.4996 229.642 83.4996 223.75V213.062C83.4999 211.096 81.9041 209.5 79.9376 209.5Z" fill="white"/>
<path d="M208.188 209.5C206.221 209.5 204.625 211.096 204.625 213.063V223.75C204.625 225.717 203.022 227.313 201.062 227.313C199.103 227.313 197.5 225.717 197.5 223.75V213.063C197.5 211.096 195.904 209.5 193.937 209.5C191.971 209.5 190.375 211.096 190.375 213.063V223.75C190.375 229.643 195.17 234.438 201.062 234.438C206.955 234.438 211.75 229.643 211.75 223.75V213.063C211.75 211.096 210.154 209.5 208.188 209.5Z" fill="white"/>
<path d="M136.937 213.062C119.346 213.062 83.386 210.854 64.7898 207.263C63.2437 206.963 62.1249 205.56 62.1249 203.857C62.1249 202.824 62.5594 201.898 63.3362 201.235C64.1201 200.579 65.096 200.316 66.1006 200.494C84.6755 203.707 118.341 205.937 136.937 205.937C138.904 205.937 140.5 204.341 140.5 202.375C140.5 200.408 138.904 198.812 136.937 198.812C118.633 198.812 85.5305 196.618 67.3047 193.476C64.248 192.948 61.1129 193.796 58.7403 195.784C56.361 197.794 55 200.729 55 203.921C55 208.973 58.5482 213.319 63.4431 214.26C82.4525 217.936 119.061 220.188 136.937 220.188C138.904 220.188 140.5 218.591 140.5 216.625C140.5 214.658 138.904 213.062 136.937 213.062Z" fill="white"/>
<path d="M215.127 195.784C212.755 193.782 209.619 192.941 206.563 193.476C188.344 196.618 155.241 198.812 136.937 198.812C134.971 198.812 133.375 200.409 133.375 202.375C133.375 204.342 134.971 205.937 136.937 205.937C155.534 205.937 189.199 203.708 207.774 200.494C208.772 200.323 209.762 200.58 210.539 201.235C211.315 201.891 211.75 202.824 211.75 203.922C211.75 205.56 210.631 206.971 209.085 207.27C190.489 210.854 154.529 213.062 136.937 213.062C134.971 213.062 133.375 214.659 133.375 216.626C133.375 218.592 134.971 220.188 136.937 220.188C154.814 220.188 191.422 217.937 210.432 214.26C215.327 213.32 218.875 208.966 218.875 203.858C218.875 200.736 217.514 197.794 215.127 195.784Z" fill="white"/>
<path d="M136.937 134.688C127.112 134.688 119.125 142.682 119.125 152.5C119.125 162.318 127.112 170.312 136.937 170.312C146.763 170.312 154.75 162.318 154.75 152.5C154.75 142.682 146.763 134.688 136.937 134.688ZM136.937 163.187C131.045 163.187 126.25 158.392 126.25 152.5C126.25 146.608 131.045 141.812 136.937 141.812C142.83 141.812 147.625 146.608 147.625 152.5C147.625 158.392 142.83 163.187 136.937 163.187Z" fill="white"/>
<path d="M83.4999 163.187C75.6409 163.187 69.2498 169.579 69.2498 177.438C69.2498 185.297 75.6409 191.688 83.4999 191.688C91.3589 191.688 97.75 185.297 97.75 177.438C97.75 169.579 91.3589 163.187 83.4999 163.187ZM83.4999 184.562C79.5669 184.562 76.375 181.363 76.375 177.438C76.375 173.512 79.5669 170.313 83.4999 170.313C87.4329 170.313 90.6248 173.512 90.6248 177.438C90.6248 181.363 87.4329 184.562 83.4999 184.562Z" fill="white"/>
<path d="M190.375 163.187C182.516 163.187 176.125 169.579 176.125 177.438C176.125 185.297 182.516 191.688 190.375 191.688C198.234 191.688 204.625 185.297 204.625 177.438C204.625 169.579 198.234 163.187 190.375 163.187ZM190.375 184.562C186.442 184.562 183.25 181.363 183.25 177.438C183.25 173.512 186.442 170.313 190.375 170.313C194.308 170.313 197.5 173.512 197.5 177.438C197.5 181.363 194.308 184.562 190.375 184.562Z" fill="white"/>
<path d="M136.937 70.5626C136.332 70.5626 76.5103 71.0115 69.549 86.9502C64.7898 97.8511 55 148.987 55 166.75C55 184.969 57.8499 195.015 63.9775 198.371C64.5189 198.67 65.1034 198.813 65.6875 198.813C66.9416 198.813 68.167 198.143 68.8083 196.967C69.7558 195.243 69.1219 193.077 67.3975 192.13C66.1578 191.446 62.1249 187.612 62.1249 166.75C62.1249 150.463 71.758 99.7041 76.0758 89.8004C79.0539 82.9815 111.238 77.6875 136.937 77.6875C138.904 77.6875 140.5 76.0914 140.5 74.1249C140.5 72.1584 138.904 70.5626 136.937 70.5626Z" fill="white"/>
<path d="M204.326 86.9499C197.365 71.0111 137.543 70.5626 136.937 70.5626C134.971 70.5626 133.375 72.1584 133.375 74.1249C133.375 76.0914 134.971 77.6875 136.937 77.6875C162.637 77.6875 194.821 82.9741 197.799 89.8001C202.117 99.7037 211.75 150.462 211.75 166.75C211.75 187.612 207.717 191.445 206.477 192.122C204.753 193.07 204.119 195.236 205.067 196.96C205.708 198.143 206.933 198.813 208.187 198.813C208.771 198.813 209.356 198.67 209.897 198.371C216.025 195.015 218.875 184.969 218.875 166.75C218.875 148.987 209.085 97.8511 204.326 86.9499Z" fill="white"/>
<path d="M139.98 193.39C115.313 153.084 88.523 139.732 63.2507 131.31C61.3911 130.697 59.3749 131.695 58.7406 133.562C58.1207 135.428 59.1324 137.445 60.9994 138.065C84.9891 146.059 110.425 158.749 133.895 197.11C134.572 198.207 135.74 198.812 136.937 198.812C137.579 198.812 138.22 198.649 138.797 198.293C140.472 197.259 141.006 195.072 139.98 193.39Z" fill="white"/>
<path d="M215.134 133.555C214.508 131.688 212.491 130.69 210.624 131.303C185.352 139.725 158.562 153.077 133.895 193.383C132.869 195.065 133.404 197.259 135.078 198.285C135.655 198.649 136.296 198.812 136.937 198.812C138.134 198.812 139.303 198.207 139.987 197.103C163.45 158.741 188.893 146.059 212.883 138.058C214.742 137.438 215.754 135.421 215.134 133.555Z" fill="white"/>
<path d="M201.062 156.063C203.03 156.063 204.625 154.468 204.625 152.5C204.625 150.532 203.03 148.937 201.062 148.937C199.095 148.937 197.5 150.532 197.5 152.5C197.5 154.468 199.095 156.063 201.062 156.063Z" fill="white"/>
<path d="M72.8124 156.063C74.78 156.063 76.375 154.468 76.375 152.5C76.375 150.532 74.78 148.937 72.8124 148.937C70.8448 148.937 69.2498 150.532 69.2498 152.5C69.2498 154.468 70.8448 156.063 72.8124 156.063Z" fill="white"/>
<path d="M197.429 123.302L191.451 93.4051C190.453 88.4248 186.043 84.8124 180.97 84.8124H92.8979C87.825 84.8124 83.4144 88.4248 82.4241 93.4051L76.4461 123.302C76.2324 124.349 76.5032 125.432 77.1799 126.259C77.8569 127.085 78.8755 127.562 79.9373 127.562H193.938C194.999 127.562 196.011 127.085 196.688 126.259C197.365 125.432 197.635 124.349 197.429 123.302ZM84.2767 120.437L89.4067 94.8019C89.7417 93.1416 91.2092 91.9376 92.8979 91.9376H180.977C182.666 91.9376 184.134 93.1416 184.461 94.8019L189.591 120.437H84.2767Z" fill="white"/>
<path d="M136.937 84.8124C134.971 84.8124 133.375 86.4085 133.375 88.375V124C133.375 125.967 134.971 127.563 136.937 127.563C138.904 127.563 140.5 125.967 140.5 124V88.375C140.5 86.4085 138.904 84.8124 136.937 84.8124Z" fill="white"/>
<path d="M221.896 114.887C216.524 110.868 208.109 113.184 207.169 113.462C205.281 114.025 204.212 116.013 204.768 117.894C205.323 119.775 207.276 120.858 209.199 120.295C210.995 119.753 215.619 119.091 217.642 120.594C217.949 120.822 218.875 121.513 218.875 123.999C218.875 124.477 218.854 124.861 218.818 125.154C217.607 124.512 215.74 123.038 214.336 121.556C212.997 120.131 210.738 120.059 209.306 121.413C207.874 122.76 207.817 125.011 209.156 126.443C211.052 128.459 215.469 132.606 219.701 132.606C220.442 132.606 221.162 132.478 221.875 132.193C224.611 131.111 226 128.353 226 124C226 118.991 223.777 116.276 221.896 114.887Z" fill="white"/>
<path d="M258.22 61.3205C247.301 64.2023 235.536 64.9782 223.822 63.492C219.057 62.8876 214.123 62.5811 209.159 62.5811C206.326 62.5811 203.411 62.8213 200.496 63.2951C193.388 64.4498 186.431 67.0979 180.379 70.9529L143.571 94.3944C141.768 95.543 139.232 95.543 137.429 94.3944L100.621 70.9529C94.5681 67.0979 87.6114 64.4498 80.5033 63.2951C77.5882 62.8213 74.6741 62.5811 71.8408 62.5811C66.8762 62.5811 61.9426 62.8876 57.1778 63.492C45.4652 64.9782 33.6988 64.2019 22.7796 61.3201C17.9531 60.0466 13 62.9551 13 67.0753V113.003C13 125.007 29.5018 136.123 53.1286 140.034C62.7828 141.633 72.9016 140.923 82.3909 137.982C84.6749 137.274 87.0392 136.68 89.4183 136.217C102.7 133.634 116.809 135.991 128.128 142.684C128.141 142.693 128.155 142.7 128.164 142.706C135.542 147.074 145.458 147.074 152.836 142.706C164.475 135.815 179.02 133.536 192.742 136.454C194.719 136.874 196.694 137.389 198.609 137.982C208.098 140.923 218.218 141.633 227.871 140.034C251.498 136.123 268 125.007 268 113.003V67.0753C268 62.9551 263.046 60.0466 258.22 61.3205ZM106.131 108.88C100.767 111.668 91.8134 115.315 81.6737 115.315C71.5345 115.315 62.5811 111.668 57.2161 108.88C54.4041 107.419 54.4041 104.096 57.2161 102.634C62.5806 99.846 71.534 96.1996 81.6737 96.1996C91.8129 96.1996 100.767 99.846 106.131 102.634C108.943 104.096 108.943 107.419 106.131 108.88ZM223.783 108.88C218.419 111.668 209.466 115.315 199.326 115.315C189.187 115.315 180.233 111.668 174.869 108.88C172.057 107.419 172.057 104.096 174.869 102.634C180.233 99.846 189.187 96.1996 199.326 96.1996C209.466 96.1996 218.419 99.846 223.783 102.634C226.595 104.096 226.595 107.419 223.783 108.88Z" fill="#300000"/>
</svg>
