<svg width="973" height="293" viewBox="0 0 973 293" fill="none" xmlns="http://www.w3.org/2000/svg">
<circle cx="140.5" cy="152.5" r="140.5" fill="#ED3833"/>
<path d="M79.9376 209.5C77.9711 209.5 76.375 211.096 76.375 213.063V223.75C76.375 225.716 74.7719 227.312 72.8124 227.312C70.8529 227.312 69.2498 225.716 69.2498 223.75V213.062C69.2498 211.096 67.6537 209.5 65.6872 209.5C63.7207 209.5 62.1246 211.096 62.1246 213.062V223.75C62.1246 229.642 66.9196 234.437 72.8121 234.437C78.7045 234.437 83.4996 229.642 83.4996 223.75V213.062C83.4999 211.096 81.9041 209.5 79.9376 209.5Z" fill="white"/>
<path d="M208.188 209.5C206.221 209.5 204.625 211.096 204.625 213.063V223.75C204.625 225.717 203.022 227.313 201.062 227.313C199.103 227.313 197.5 225.717 197.5 223.75V213.063C197.5 211.096 195.904 209.5 193.937 209.5C191.971 209.5 190.375 211.096 190.375 213.063V223.75C190.375 229.643 195.17 234.438 201.062 234.438C206.955 234.438 211.75 229.643 211.75 223.75V213.063C211.75 211.096 210.154 209.5 208.188 209.5Z" fill="white"/>
<path d="M136.937 213.062C119.346 213.062 83.386 210.854 64.7898 207.263C63.2437 206.963 62.1249 205.56 62.1249 203.857C62.1249 202.824 62.5594 201.898 63.3362 201.235C64.1201 200.579 65.096 200.316 66.1006 200.494C84.6755 203.707 118.341 205.937 136.937 205.937C138.904 205.937 140.5 204.341 140.5 202.375C140.5 200.408 138.904 198.812 136.937 198.812C118.633 198.812 85.5305 196.618 67.3047 193.476C64.248 192.948 61.1129 193.796 58.7403 195.784C56.361 197.794 55 200.729 55 203.921C55 208.973 58.5482 213.319 63.4431 214.26C82.4525 217.936 119.061 220.188 136.937 220.188C138.904 220.188 140.5 218.591 140.5 216.625C140.5 214.658 138.904 213.062 136.937 213.062Z" fill="white"/>
<path d="M215.127 195.784C212.755 193.782 209.619 192.941 206.563 193.476C188.344 196.618 155.241 198.812 136.937 198.812C134.971 198.812 133.375 200.409 133.375 202.375C133.375 204.342 134.971 205.937 136.937 205.937C155.534 205.937 189.199 203.708 207.774 200.494C208.772 200.323 209.762 200.58 210.539 201.235C211.315 201.891 211.75 202.824 211.75 203.922C211.75 205.56 210.631 206.971 209.085 207.27C190.489 210.854 154.529 213.062 136.937 213.062C134.971 213.062 133.375 214.659 133.375 216.626C133.375 218.592 134.971 220.188 136.937 220.188C154.814 220.188 191.422 217.937 210.432 214.26C215.327 213.32 218.875 208.966 218.875 203.858C218.875 200.736 217.514 197.794 215.127 195.784Z" fill="white"/>
<path d="M136.937 134.688C127.112 134.688 119.125 142.682 119.125 152.5C119.125 162.318 127.112 170.312 136.937 170.312C146.763 170.312 154.75 162.318 154.75 152.5C154.75 142.682 146.763 134.688 136.937 134.688ZM136.937 163.187C131.045 163.187 126.25 158.392 126.25 152.5C126.25 146.608 131.045 141.812 136.937 141.812C142.83 141.812 147.625 146.608 147.625 152.5C147.625 158.392 142.83 163.187 136.937 163.187Z" fill="white"/>
<path d="M83.4999 163.187C75.6409 163.187 69.2498 169.579 69.2498 177.438C69.2498 185.297 75.6409 191.688 83.4999 191.688C91.3589 191.688 97.75 185.297 97.75 177.438C97.75 169.579 91.3589 163.187 83.4999 163.187ZM83.4999 184.562C79.5669 184.562 76.375 181.363 76.375 177.438C76.375 173.512 79.5669 170.313 83.4999 170.313C87.4329 170.313 90.6248 173.512 90.6248 177.438C90.6248 181.363 87.4329 184.562 83.4999 184.562Z" fill="white"/>
<path d="M190.375 163.187C182.516 163.187 176.125 169.579 176.125 177.438C176.125 185.297 182.516 191.688 190.375 191.688C198.234 191.688 204.625 185.297 204.625 177.438C204.625 169.579 198.234 163.187 190.375 163.187ZM190.375 184.562C186.442 184.562 183.25 181.363 183.25 177.438C183.25 173.512 186.442 170.313 190.375 170.313C194.308 170.313 197.5 173.512 197.5 177.438C197.5 181.363 194.308 184.562 190.375 184.562Z" fill="white"/>
<path d="M136.937 70.5626C136.332 70.5626 76.5103 71.0115 69.549 86.9502C64.7898 97.8511 55 148.987 55 166.75C55 184.969 57.8499 195.015 63.9775 198.371C64.5189 198.67 65.1034 198.813 65.6875 198.813C66.9416 198.813 68.167 198.143 68.8083 196.967C69.7558 195.243 69.1219 193.077 67.3975 192.13C66.1578 191.446 62.1249 187.612 62.1249 166.75C62.1249 150.463 71.758 99.7041 76.0758 89.8004C79.0539 82.9815 111.238 77.6875 136.937 77.6875C138.904 77.6875 140.5 76.0914 140.5 74.1249C140.5 72.1584 138.904 70.5626 136.937 70.5626Z" fill="white"/>
<path d="M204.326 86.9499C197.365 71.0111 137.543 70.5626 136.937 70.5626C134.971 70.5626 133.375 72.1584 133.375 74.1249C133.375 76.0914 134.971 77.6875 136.937 77.6875C162.637 77.6875 194.821 82.9741 197.799 89.8001C202.117 99.7037 211.75 150.462 211.75 166.75C211.75 187.612 207.717 191.445 206.477 192.122C204.753 193.07 204.119 195.236 205.067 196.96C205.708 198.143 206.933 198.813 208.187 198.813C208.771 198.813 209.356 198.67 209.897 198.371C216.025 195.015 218.875 184.969 218.875 166.75C218.875 148.987 209.085 97.8511 204.326 86.9499Z" fill="white"/>
<path d="M139.98 193.39C115.313 153.084 88.523 139.732 63.2507 131.31C61.3911 130.697 59.3749 131.695 58.7406 133.562C58.1207 135.428 59.1324 137.445 60.9994 138.065C84.9891 146.059 110.425 158.749 133.895 197.11C134.572 198.207 135.74 198.812 136.937 198.812C137.579 198.812 138.22 198.649 138.797 198.293C140.472 197.259 141.006 195.072 139.98 193.39Z" fill="white"/>
<path d="M215.134 133.555C214.508 131.688 212.491 130.69 210.624 131.303C185.352 139.725 158.562 153.077 133.895 193.383C132.869 195.065 133.404 197.259 135.078 198.285C135.655 198.649 136.296 198.812 136.937 198.812C138.134 198.812 139.303 198.207 139.987 197.103C163.45 158.741 188.893 146.059 212.883 138.058C214.742 137.438 215.754 135.421 215.134 133.555Z" fill="white"/>
<path d="M201.062 156.063C203.03 156.063 204.625 154.468 204.625 152.5C204.625 150.532 203.03 148.937 201.062 148.937C199.095 148.937 197.5 150.532 197.5 152.5C197.5 154.468 199.095 156.063 201.062 156.063Z" fill="white"/>
<path d="M72.8124 156.063C74.78 156.063 76.375 154.468 76.375 152.5C76.375 150.532 74.78 148.937 72.8124 148.937C70.8448 148.937 69.2498 150.532 69.2498 152.5C69.2498 154.468 70.8448 156.063 72.8124 156.063Z" fill="white"/>
<path d="M197.429 123.302L191.451 93.4051C190.453 88.4248 186.043 84.8124 180.97 84.8124H92.8979C87.825 84.8124 83.4144 88.4248 82.4241 93.4051L76.4461 123.302C76.2324 124.349 76.5032 125.432 77.1799 126.259C77.8569 127.085 78.8755 127.562 79.9373 127.562H193.938C194.999 127.562 196.011 127.085 196.688 126.259C197.365 125.432 197.635 124.349 197.429 123.302ZM84.2767 120.437L89.4067 94.8019C89.7417 93.1416 91.2092 91.9376 92.8979 91.9376H180.977C182.666 91.9376 184.134 93.1416 184.461 94.8019L189.591 120.437H84.2767Z" fill="white"/>
<path d="M136.937 84.8124C134.971 84.8124 133.375 86.4085 133.375 88.375V124C133.375 125.967 134.971 127.563 136.937 127.563C138.904 127.563 140.5 125.967 140.5 124V88.375C140.5 86.4085 138.904 84.8124 136.937 84.8124Z" fill="white"/>
<path d="M221.896 114.887C216.524 110.868 208.109 113.184 207.169 113.462C205.281 114.025 204.212 116.013 204.768 117.894C205.323 119.775 207.276 120.858 209.199 120.295C210.995 119.753 215.619 119.091 217.642 120.594C217.949 120.822 218.875 121.513 218.875 123.999C218.875 124.477 218.854 124.861 218.818 125.154C217.607 124.512 215.74 123.038 214.336 121.556C212.997 120.131 210.738 120.059 209.306 121.413C207.874 122.76 207.817 125.011 209.156 126.443C211.052 128.459 215.469 132.606 219.701 132.606C220.442 132.606 221.162 132.478 221.875 132.193C224.611 131.111 226 128.353 226 124C226 118.991 223.777 116.276 221.896 114.887Z" fill="white"/>
<path d="M258.22 61.3205C247.301 64.2023 235.536 64.9782 223.822 63.492C219.057 62.8876 214.123 62.5811 209.159 62.5811C206.326 62.5811 203.411 62.8213 200.496 63.2951C193.388 64.4498 186.431 67.0979 180.379 70.9529L143.571 94.3944C141.768 95.543 139.232 95.543 137.429 94.3944L100.621 70.9529C94.5681 67.0979 87.6114 64.4498 80.5033 63.2951C77.5882 62.8213 74.6741 62.5811 71.8408 62.5811C66.8762 62.5811 61.9426 62.8876 57.1778 63.492C45.4652 64.9782 33.6988 64.2019 22.7796 61.3201C17.9531 60.0466 13 62.9551 13 67.0753V113.003C13 125.007 29.5018 136.123 53.1286 140.034C62.7828 141.633 72.9016 140.923 82.3909 137.982C84.6749 137.274 87.0392 136.68 89.4183 136.217C102.7 133.634 116.809 135.991 128.128 142.684C128.141 142.693 128.155 142.7 128.164 142.706C135.542 147.074 145.458 147.074 152.836 142.706C164.475 135.815 179.02 133.536 192.742 136.454C194.719 136.874 196.694 137.389 198.609 137.982C208.098 140.923 218.218 141.633 227.871 140.034C251.498 136.123 268 125.007 268 113.003V67.0753C268 62.9551 263.046 60.0466 258.22 61.3205ZM106.131 108.88C100.767 111.668 91.8134 115.315 81.6737 115.315C71.5345 115.315 62.5811 111.668 57.2161 108.88C54.4041 107.419 54.4041 104.096 57.2161 102.634C62.5806 99.846 71.534 96.1996 81.6737 96.1996C91.8129 96.1996 100.767 99.846 106.131 102.634C108.943 104.096 108.943 107.419 106.131 108.88ZM223.783 108.88C218.419 111.668 209.466 115.315 199.326 115.315C189.187 115.315 180.233 111.668 174.869 108.88C172.057 107.419 172.057 104.096 174.869 102.634C180.233 99.846 189.187 96.1996 199.326 96.1996C209.466 96.1996 218.419 99.846 223.783 102.634C226.595 104.096 226.595 107.419 223.783 108.88Z" fill="#300000"/>
<path d="M344.027 52.3301C344.027 50.1211 343.875 47.9883 343.57 45.9316C343.266 43.7988 343.189 41.9326 343.342 40.333C343.494 38.6572 344.065 37.3242 345.056 36.334C346.122 35.3438 348.026 34.8486 350.769 34.8486C351.606 36.6006 352.406 39.2666 353.168 42.8467C354.006 46.4268 354.806 50.54 355.567 55.1865C356.329 59.833 357.053 64.8984 357.738 70.3828C358.424 75.791 359.033 81.2373 359.566 86.7217C360.176 92.2061 360.671 97.6143 361.052 102.946C361.509 108.202 361.852 113.001 362.08 117.343C359.566 119.019 357.548 119.133 356.024 117.686C354.501 116.238 353.244 113.801 352.254 110.373C351.264 106.869 350.502 102.642 349.969 97.6904C349.436 92.6631 348.902 87.4834 348.369 82.1514C347.912 76.7432 347.341 71.4492 346.655 66.2695C345.97 61.0137 345.094 56.3672 344.027 52.3301ZM368.021 85.2363C368.021 81.123 368.517 77.0098 369.507 72.8965C370.497 68.7832 372.059 65.0889 374.191 61.8135C376.4 58.5381 379.219 55.8721 382.646 53.8154C386.15 51.7588 390.378 50.7305 395.329 50.7305C398.147 50.7305 400.623 51.2637 402.756 52.3301C404.889 53.3203 406.679 54.6533 408.126 56.3291C409.573 58.0049 410.64 59.9854 411.325 62.2705C412.087 64.4795 412.468 66.8027 412.468 69.2402C412.468 73.125 411.554 76.8955 409.726 80.5518C407.974 84.208 405.574 87.4453 402.527 90.2637C399.557 93.0059 396.129 95.1006 392.244 96.5479C388.359 97.9189 384.398 98.2236 380.361 97.4619C380.438 99.6709 381.161 101.461 382.532 102.832C383.979 104.127 385.693 105.117 387.674 105.803C389.654 106.488 391.711 106.945 393.844 107.174C395.977 107.326 397.881 107.402 399.557 107.402C401.309 107.402 402.946 107.25 404.47 106.945C405.993 106.641 407.517 106.298 409.04 105.917C410.563 105.536 412.087 105.193 413.61 104.889C415.21 104.584 416.886 104.432 418.638 104.432C419.323 104.432 420.009 104.47 420.694 104.546C421.38 104.622 422.027 104.812 422.637 105.117C423.246 105.346 423.741 105.765 424.122 106.374C424.503 106.907 424.693 107.593 424.693 108.431C424.693 109.878 424.16 111.097 423.094 112.087C422.027 113.001 420.656 113.801 418.98 114.486C417.381 115.172 415.591 115.705 413.61 116.086C411.63 116.391 409.688 116.657 407.783 116.886C405.955 117.038 404.241 117.114 402.642 117.114C401.118 117.19 399.976 117.229 399.214 117.229C394.339 117.229 389.959 116.467 386.074 114.943C382.189 113.344 378.914 111.173 376.248 108.431C373.582 105.612 371.525 102.261 370.078 98.376C368.707 94.415 368.021 90.0352 368.021 85.2363ZM380.133 77.8096C380.133 80.4756 380.476 82.418 381.161 83.6367C381.923 84.8555 383.713 85.4648 386.531 85.4648C388.512 85.4648 390.454 85.1221 392.358 84.4365C394.263 83.6748 395.977 82.6465 397.5 81.3516C399.1 80.0566 400.356 78.5332 401.271 76.7812C402.185 75.0293 402.642 73.125 402.642 71.0684C402.642 69.9258 402.527 68.7451 402.299 67.5264C402.146 66.3076 401.766 65.2031 401.156 64.2129C400.547 63.1465 399.747 62.3086 398.757 61.6992C397.843 61.0137 396.624 60.6709 395.101 60.6709C392.815 60.6709 390.721 61.2041 388.816 62.2705C386.988 63.2607 385.427 64.5938 384.132 66.2695C382.837 67.8691 381.847 69.6973 381.161 71.7539C380.476 73.7344 380.133 75.7529 380.133 77.8096ZM481.937 68.0977C481.937 66.8027 482.203 65.6221 482.736 64.5557C483.346 63.4893 484.374 62.9561 485.821 62.9561C485.897 62.9561 486.012 62.9941 486.164 63.0703C486.316 63.0703 486.469 63.0703 486.621 63.0703C486.773 63.0703 486.926 63.0703 487.078 63.0703C487.307 63.2227 487.726 63.6035 488.335 64.2129C489.021 64.8223 489.439 65.2793 489.592 65.584C489.82 66.041 490.277 67.0312 490.963 68.5547C491.725 70.0781 492.601 71.8682 493.591 73.9248C494.657 75.9053 495.724 78.0381 496.79 80.3232C497.933 82.5322 498.999 84.665 499.989 86.7217C501.056 88.7783 501.932 90.5684 502.617 92.0918C503.379 93.5391 503.912 94.4912 504.217 94.9482C504.293 95.1768 504.636 95.6338 505.245 96.3193C505.931 96.9287 506.426 97.3096 506.73 97.4619C507.34 96.3955 507.949 94.7959 508.559 92.6631C509.168 90.5303 509.777 88.207 510.387 85.6934C511.072 83.1035 511.758 80.4756 512.443 77.8096C513.129 75.0674 513.891 72.6299 514.729 70.4971C515.643 68.2881 516.633 66.498 517.699 65.127C518.766 63.6797 519.984 62.9561 521.355 62.9561C523.336 62.9561 525.202 63.7178 526.954 65.2412C528.782 66.7646 530.496 68.7451 532.096 71.1826C533.771 73.6201 535.333 76.3623 536.78 79.4092C538.304 82.3799 539.713 85.3506 541.008 88.3213C542.379 91.2158 543.636 93.9199 544.778 96.4336C545.997 98.8711 547.178 100.813 548.32 102.261C549.234 101.956 549.996 101.194 550.605 99.9756C551.215 98.7568 551.672 97.5 551.977 96.2051C552.357 94.834 552.624 93.5771 552.776 92.4346C552.929 91.2158 553.043 90.416 553.119 90.0352C553.195 89.1973 553.31 87.9023 553.462 86.1504C553.614 84.3223 553.767 82.2656 553.919 79.9805C554.147 77.6953 554.338 75.334 554.49 72.8965C554.643 70.459 554.795 68.0977 554.947 65.8125C555.176 63.5273 555.328 61.5088 555.404 59.7568C555.557 57.9287 555.633 56.6338 555.633 55.8721C555.785 55.8721 556.166 55.834 556.775 55.7578C557.385 55.6055 557.804 55.5293 558.032 55.5293C559.099 55.5293 560.051 55.6436 560.889 55.8721C561.727 56.1006 562.374 56.9004 562.831 58.2715C562.831 58.8047 562.831 59.7568 562.831 61.1279C562.907 62.499 562.945 63.9844 562.945 65.584C563.021 67.1074 563.06 68.5928 563.06 70.04C563.136 71.4111 563.174 72.3633 563.174 72.8965C563.174 74.1152 563.174 76.0195 563.174 78.6094C563.25 81.123 563.212 83.9414 563.06 87.0645C562.983 90.1875 562.755 93.3867 562.374 96.6621C561.993 99.8613 561.384 102.832 560.546 105.574C559.784 108.24 558.718 110.449 557.347 112.201C555.976 113.877 554.262 114.715 552.205 114.715C549.844 114.715 547.635 114.144 545.578 113.001C543.521 111.858 541.579 110.335 539.751 108.431C537.999 106.526 536.323 104.432 534.724 102.146C533.124 99.7852 531.639 97.4238 530.268 95.0625C528.973 92.625 527.754 90.3398 526.611 88.207C525.545 85.998 524.593 84.1318 523.755 82.6084C523.146 83.9795 522.574 85.6934 522.041 87.75C521.584 89.8066 521.051 92.0537 520.441 94.4912C519.832 96.8525 519.146 99.252 518.385 101.689C517.623 104.051 516.747 106.222 515.757 108.202C514.843 110.106 513.738 111.668 512.443 112.887C511.225 114.105 509.815 114.715 508.216 114.715C507.454 114.715 506.769 114.753 506.159 114.829C505.55 114.829 504.979 114.791 504.445 114.715C503.912 114.562 503.417 114.296 502.96 113.915C502.503 113.534 502.084 112.925 501.703 112.087L482.165 70.3828C482.165 70.3066 482.127 70.002 482.051 69.4688C481.975 68.8594 481.937 68.4023 481.937 68.0977ZM619.389 102.261C616.494 104.241 613.98 106.031 611.848 107.631C609.791 109.154 607.772 110.449 605.792 111.516C603.812 112.582 601.679 113.382 599.394 113.915C597.185 114.448 594.442 114.715 591.167 114.715C584.083 114.715 578.827 112.849 575.399 109.116C571.972 105.308 570.258 99.6709 570.258 92.2061C570.258 89.3115 570.639 86.3027 571.4 83.1797C572.162 80.0566 573.267 76.9717 574.714 73.9248C576.237 70.8018 578.027 67.8691 580.084 65.127C582.141 62.3086 584.464 59.833 587.054 57.7002C589.644 55.5674 592.386 53.8916 595.28 52.6729C598.251 51.3779 601.374 50.7305 604.649 50.7305C610.134 51.2637 614.438 52.6348 617.561 54.8438C620.684 56.9766 623.045 59.7568 624.645 63.1846C626.244 66.5361 627.349 70.3066 627.958 74.4961C628.567 78.6094 629.024 82.875 629.329 87.293C629.71 91.7109 630.167 96.1289 630.7 100.547C631.233 104.965 632.338 109.04 634.014 112.772C633.023 115.286 632.071 117.038 631.157 118.028C630.319 119.095 629.367 119.285 628.301 118.6C627.234 117.914 625.978 116.238 624.53 113.572C623.159 110.906 621.445 107.136 619.389 102.261ZM579.97 92.4346C579.97 96.7764 580.77 99.9756 582.369 102.032C584.045 104.013 586.978 105.003 591.167 105.003C594.29 105.003 597.261 104.47 600.079 103.403C602.974 102.261 605.487 100.737 607.62 98.833C609.753 96.8525 611.467 94.4912 612.762 91.749C614.057 89.0068 614.704 85.96 614.704 82.6084C614.704 81.2373 614.742 79.333 614.818 76.8955C614.895 74.3818 614.742 71.9062 614.361 69.4688C613.98 67.0312 613.257 64.9365 612.19 63.1846C611.124 61.3564 609.524 60.4424 607.392 60.4424C603.431 60.4424 599.774 61.4707 596.423 63.5273C593.071 65.5078 590.177 68.0596 587.739 71.1826C585.302 74.3057 583.397 77.7715 582.026 81.5801C580.655 85.3125 579.97 88.9307 579.97 92.4346ZM670.69 177.785C674.956 177.785 678.765 176.985 682.116 175.386C685.468 173.862 688.286 171.729 690.571 168.987C692.933 166.321 694.723 163.236 695.941 159.732C697.236 156.305 697.884 152.725 697.884 148.992C697.884 147.088 697.77 144.574 697.541 141.451C697.389 138.328 697.122 134.938 696.741 131.282C696.36 127.626 695.789 123.894 695.027 120.085C694.342 116.276 693.466 112.696 692.399 109.345C691.333 105.917 690 102.946 688.4 100.433C686.877 97.8428 685.087 96.0146 683.03 94.9482C681.05 96.4717 679.107 97.8809 677.203 99.1758C675.299 100.395 673.318 101.423 671.262 102.261C669.205 103.099 667.072 103.784 664.863 104.317C662.654 104.774 660.293 105.003 657.779 105.003C654.504 105.003 651.686 104.698 649.324 104.089C647.039 103.479 645.097 102.451 643.497 101.004C641.974 99.5566 640.831 97.6523 640.069 95.291C639.308 92.9297 638.927 89.959 638.927 86.3789C638.927 83.8652 639.536 81.4277 640.755 79.0664C641.974 76.6289 643.573 74.3818 645.554 72.3252C647.61 70.1924 649.896 68.25 652.409 66.498C654.999 64.7461 657.627 63.2227 660.293 61.9277C663.035 60.6328 665.701 59.6426 668.291 58.957C670.957 58.2715 673.318 57.9287 675.375 57.9287C677.355 57.9287 678.993 58.0049 680.288 58.1572C681.583 58.2334 682.688 58.5381 683.602 59.0713C684.516 59.5283 685.277 60.29 685.887 61.3564C686.572 62.3467 687.22 63.7178 687.829 65.4697C689.581 71.4111 691.6 77.8096 693.885 84.665C696.17 91.5205 698.341 98.5664 700.397 105.803C702.454 113.039 704.168 120.313 705.539 127.626C706.986 135.015 707.71 142.137 707.71 148.992C707.71 155.086 706.834 160.228 705.082 164.417C703.406 168.683 701.159 172.148 698.341 174.814C695.599 177.557 692.438 179.651 688.857 181.099C685.354 182.546 681.812 183.46 678.231 183.841C674.651 184.298 671.186 184.412 667.834 184.184C664.482 183.955 661.588 183.498 659.15 182.812C656.713 182.203 654.847 181.479 653.552 180.642C652.333 179.804 652.028 179.08 652.638 178.471C653.323 177.938 655.075 177.557 657.894 177.328C660.712 177.1 664.978 177.252 670.69 177.785ZM672.29 67.5264C666.653 68.7451 662.083 70.459 658.579 72.668C655.151 74.8008 652.562 77.124 650.81 79.6377C649.134 82.0752 648.22 84.5508 648.067 87.0645C647.915 89.502 648.372 91.5967 649.438 93.3486C650.505 95.1006 652.028 96.4336 654.009 97.3477C656.065 98.1855 658.389 98.2236 660.979 97.4619C663.568 96.624 666.311 94.8721 669.205 92.2061C672.176 89.54 675.146 85.5791 678.117 80.3232C678.117 79.0283 678.117 77.6191 678.117 76.0957C678.193 74.5723 678.079 73.2012 677.774 71.9824C677.47 70.6875 676.898 69.6211 676.061 68.7832C675.223 67.9453 673.966 67.5264 672.29 67.5264ZM707.367 93.8057C707.367 89.083 708.472 84.7031 710.681 80.666C712.89 76.5527 715.784 73.0488 719.364 70.1543C723.021 67.1836 727.096 64.8604 731.59 63.1846C736.16 61.5088 740.769 60.6709 745.415 60.6709C748.005 60.6709 750.29 61.5088 752.271 63.1846C754.327 64.8604 756.041 66.917 757.412 69.3545C758.783 71.7158 759.812 74.2295 760.497 76.8955C761.259 79.5615 761.64 81.8848 761.64 83.8652C761.64 88.1309 760.611 92.2822 758.555 96.3193C756.498 100.28 753.832 103.822 750.557 106.945C747.281 109.992 743.587 112.468 739.474 114.372C735.36 116.276 731.247 117.229 727.134 117.229C723.478 117.229 720.393 116.619 717.879 115.4C715.365 114.105 713.347 112.43 711.823 110.373C710.3 108.24 709.157 105.765 708.396 102.946C707.71 100.052 707.367 97.0049 707.367 93.8057ZM717.079 94.9482C717.079 96.9287 717.231 98.6807 717.536 100.204C717.917 101.651 718.526 102.908 719.364 103.975C720.278 105.041 721.459 105.879 722.906 106.488C724.354 107.021 726.144 107.288 728.276 107.288C731.095 107.288 733.913 106.526 736.731 105.003C739.55 103.403 742.063 101.423 744.272 99.0615C746.558 96.624 748.386 93.958 749.757 91.0635C751.128 88.1689 751.813 85.3506 751.813 82.6084C751.813 81.3896 751.699 80.0566 751.471 78.6094C751.242 77.1621 750.861 75.8291 750.328 74.6104C749.795 73.3916 749.033 72.3633 748.043 71.5254C747.053 70.6875 745.796 70.2686 744.272 70.2686C742.901 70.2686 741.264 70.7256 739.359 71.6396C737.531 72.5537 735.589 73.7344 733.532 75.1816C731.552 76.6289 729.571 78.2666 727.591 80.0947C725.687 81.9229 723.935 83.751 722.335 85.5791C720.735 87.4072 719.44 89.1592 718.45 90.835C717.536 92.5107 717.079 93.8818 717.079 94.9482ZM766.096 78.4951C766.096 76.5146 766.591 75.1055 767.581 74.2676C768.571 73.3535 770.171 72.8965 772.38 72.8965H773.522C773.751 74.1152 774.018 75.5244 774.322 77.124C774.627 78.7236 775.084 80.3613 775.693 82.0371C776.303 83.7129 777.026 85.2744 777.864 86.7217C778.702 88.0928 779.73 89.1973 780.949 90.0352C781.025 87.3691 781.673 84.8174 782.892 82.3799C784.187 79.8662 785.748 77.6572 787.576 75.7529C789.48 73.7725 791.537 72.1348 793.746 70.8398C796.031 69.4688 798.278 68.5547 800.487 68.0977H803.001C806.657 68.0977 809.78 68.9355 812.37 70.6113C814.96 72.2109 817.093 74.3438 818.769 77.0098C820.521 79.5996 821.854 82.5703 822.768 85.9219C823.682 89.2734 824.367 92.7012 824.824 96.2051C825.357 99.6328 825.662 102.984 825.738 106.26C825.891 109.459 825.967 112.201 825.967 114.486H817.626C817.169 109.916 816.598 105.536 815.912 101.347C815.684 99.6709 815.379 97.9189 814.998 96.0908C814.617 94.1865 814.198 92.4346 813.741 90.835C813.284 89.1592 812.789 87.6357 812.256 86.2646C811.723 84.8174 811.113 83.5986 810.428 82.6084C810.123 82.3037 809.704 81.8848 809.171 81.3516C808.714 80.8184 808.219 80.2852 807.686 79.752C807.152 79.2188 806.657 78.7617 806.2 78.3809C805.743 78 805.477 77.8096 805.4 77.8096C803.115 77.2002 801.135 77.6572 799.459 79.1807C797.783 80.6279 796.298 82.6084 795.003 85.1221C793.708 87.6357 792.642 90.4922 791.804 93.6914C791.042 96.8906 790.395 99.9756 789.861 102.946C789.328 105.841 788.947 108.393 788.719 110.602C788.49 112.734 788.338 114.029 788.262 114.486C786.357 115.857 784.567 116.276 782.892 115.743C781.216 115.134 779.616 113.915 778.093 112.087C776.646 110.259 775.312 107.974 774.094 105.231C772.951 102.489 771.885 99.5947 770.895 96.5479C769.904 93.4248 768.99 90.3018 768.152 87.1787C767.391 84.0557 766.705 81.1611 766.096 78.4951ZM338.771 203.012C338.771 201.107 339.076 199.622 339.686 198.556C340.371 197.489 341.78 196.956 343.913 196.956C344.142 196.956 344.561 196.994 345.17 197.07C345.855 197.07 346.274 197.07 346.427 197.07C346.96 199.432 347.493 202.021 348.026 204.84C348.636 207.582 349.321 210.362 350.083 213.181C350.845 215.999 351.683 218.779 352.597 221.521C353.587 224.264 354.768 226.739 356.139 228.948C357.51 227.501 358.5 225.787 359.109 223.807C359.719 221.826 360.176 219.846 360.48 217.865C360.785 215.809 361.052 213.866 361.28 212.038C361.585 210.134 362.156 208.534 362.994 207.239C363.832 205.868 365.051 204.878 366.65 204.269C368.326 203.659 370.611 203.659 373.506 204.269C376.705 204.269 379.257 204.878 381.161 206.097C383.065 207.239 384.703 208.725 386.074 210.553C387.521 212.305 388.893 214.209 390.188 216.266C391.559 218.246 393.272 220.036 395.329 221.636C395.786 220.646 396.357 219.427 397.043 217.979C397.729 216.456 398.566 214.895 399.557 213.295C400.623 211.619 401.728 209.981 402.87 208.382C404.089 206.706 405.346 205.221 406.641 203.926C407.936 202.555 409.269 201.45 410.64 200.612C412.011 199.698 413.344 199.241 414.639 199.241C417.762 199.241 420.466 200.231 422.751 202.212C425.036 204.116 426.979 206.554 428.578 209.524C430.254 212.419 431.625 215.694 432.691 219.351C433.758 222.931 434.596 226.396 435.205 229.748C435.814 233.1 436.233 236.185 436.462 239.003C436.767 241.745 436.919 243.726 436.919 244.944C436.919 245.935 436.69 246.696 436.233 247.229C435.776 247.763 435.205 248.182 434.52 248.486C433.834 248.715 433.072 248.867 432.234 248.943C431.473 249.02 430.749 249.058 430.063 249.058C429.911 249.058 429.683 249.058 429.378 249.058C429.073 248.981 428.73 248.905 428.35 248.829C428.045 248.753 427.626 248.639 427.093 248.486L419.666 214.323C419.666 214.095 419.361 213.676 418.752 213.066C418.143 212.381 417.686 211.962 417.381 211.81C417.152 211.81 416.962 211.771 416.81 211.695C416.657 211.695 416.543 211.695 416.467 211.695C416.391 211.619 416.314 211.581 416.238 211.581C414.639 211.581 413.115 212.229 411.668 213.523C410.297 214.818 409.002 216.456 407.783 218.437C406.564 220.417 405.422 222.626 404.355 225.063C403.289 227.501 402.337 229.938 401.499 232.376C400.661 234.737 399.899 236.946 399.214 239.003C398.604 240.983 398.109 242.507 397.729 243.573C397.424 243.726 396.814 243.878 395.9 244.03C394.986 244.106 394.377 244.145 394.072 244.145C391.939 244.145 390.302 243.421 389.159 241.974C388.017 240.45 387.064 238.584 386.303 236.375C385.617 234.166 385.008 231.767 384.475 229.177C384.018 226.511 383.408 224.073 382.646 221.864C381.961 219.655 380.971 217.827 379.676 216.38C378.457 214.856 376.705 214.095 374.42 214.095C373.582 214.095 372.782 214.933 372.021 216.608C371.259 218.284 370.573 220.417 369.964 223.007C369.354 225.521 368.783 228.263 368.25 231.233C367.717 234.128 367.26 236.87 366.879 239.46C366.574 241.974 366.346 244.106 366.193 245.858C366.041 247.61 365.965 248.486 365.965 248.486C365.812 248.715 365.508 248.981 365.051 249.286C364.594 249.515 364.099 249.781 363.565 250.086C363.108 250.391 362.613 250.619 362.08 250.771C361.623 250.924 361.28 251 361.052 251C358.919 251 356.862 250.048 354.882 248.144C352.901 246.163 351.073 243.649 349.397 240.603C347.798 237.479 346.312 234.052 344.941 230.319C343.646 226.587 342.542 222.931 341.628 219.351C340.714 215.771 339.99 212.533 339.457 209.639C339 206.744 338.771 204.535 338.771 203.012ZM490.734 236.261C487.84 238.241 485.326 240.031 483.193 241.631C481.137 243.154 479.118 244.449 477.138 245.516C475.157 246.582 473.024 247.382 470.739 247.915C468.53 248.448 465.788 248.715 462.513 248.715C455.429 248.715 450.173 246.849 446.745 243.116C443.317 239.308 441.604 233.671 441.604 226.206C441.604 223.312 441.984 220.303 442.746 217.18C443.508 214.057 444.612 210.972 446.06 207.925C447.583 204.802 449.373 201.869 451.43 199.127C453.486 196.309 455.81 193.833 458.399 191.7C460.989 189.567 463.731 187.892 466.626 186.673C469.597 185.378 472.72 184.73 475.995 184.73C481.479 185.264 485.783 186.635 488.906 188.844C492.029 190.977 494.391 193.757 495.99 197.185C497.59 200.536 498.694 204.307 499.304 208.496C499.913 212.609 500.37 216.875 500.675 221.293C501.056 225.711 501.513 230.129 502.046 234.547C502.579 238.965 503.684 243.04 505.359 246.772C504.369 249.286 503.417 251.038 502.503 252.028C501.665 253.095 500.713 253.285 499.646 252.6C498.58 251.914 497.323 250.238 495.876 247.572C494.505 244.906 492.791 241.136 490.734 236.261ZM451.315 226.435C451.315 230.776 452.115 233.976 453.715 236.032C455.391 238.013 458.323 239.003 462.513 239.003C465.636 239.003 468.606 238.47 471.425 237.403C474.319 236.261 476.833 234.737 478.966 232.833C481.099 230.853 482.812 228.491 484.107 225.749C485.402 223.007 486.05 219.96 486.05 216.608C486.05 215.237 486.088 213.333 486.164 210.896C486.24 208.382 486.088 205.906 485.707 203.469C485.326 201.031 484.603 198.937 483.536 197.185C482.47 195.356 480.87 194.442 478.737 194.442C474.776 194.442 471.12 195.471 467.769 197.527C464.417 199.508 461.522 202.06 459.085 205.183C456.647 208.306 454.743 211.771 453.372 215.58C452.001 219.312 451.315 222.931 451.315 226.435ZM534.495 245.858C535.714 245.021 537.161 243.954 538.837 242.659C540.589 241.288 542.341 239.841 544.093 238.317C545.845 236.794 547.482 235.194 549.006 233.519C550.529 231.843 551.71 230.243 552.548 228.72C553.462 227.12 553.919 225.635 553.919 224.264C553.919 222.893 553.233 221.75 551.862 220.836C549.425 220.836 546.759 220.95 543.864 221.179C540.97 221.331 538.075 221.407 535.181 221.407C532.286 221.331 529.468 221.064 526.726 220.607C524.06 220.15 521.66 219.312 519.527 218.094C517.395 216.875 515.681 215.161 514.386 212.952C513.167 210.667 512.558 207.772 512.558 204.269C512.558 200.155 513.319 196.461 514.843 193.186C516.442 189.834 518.537 186.901 521.127 184.388C523.717 181.798 526.611 179.551 529.811 177.646C533.086 175.666 536.361 173.99 539.637 172.619C541.617 173.152 543.445 174.104 545.121 175.476C546.797 176.847 548.244 178.37 549.463 180.046C548.93 181.722 547.863 183.017 546.264 183.931C544.74 184.845 542.95 185.645 540.894 186.33C538.913 187.016 536.818 187.739 534.609 188.501C532.4 189.263 530.382 190.291 528.554 191.586C526.802 192.805 525.316 194.442 524.098 196.499C522.879 198.479 522.27 201.107 522.27 204.383C522.27 206.82 522.879 208.61 524.098 209.753C525.316 210.896 526.916 211.695 528.896 212.152C530.877 212.533 533.124 212.686 535.638 212.609C538.151 212.457 540.703 212.267 543.293 212.038C545.959 211.81 548.549 211.695 551.062 211.695C553.576 211.619 555.823 211.924 557.804 212.609C559.784 213.219 561.346 214.247 562.488 215.694C563.707 217.142 564.316 219.274 564.316 222.093C564.316 223.312 563.897 224.873 563.06 226.777C562.298 228.682 561.231 230.738 559.86 232.947C558.565 235.08 557.004 237.213 555.176 239.346C553.424 241.479 551.558 243.421 549.577 245.173C547.673 246.849 545.73 248.258 543.75 249.4C541.846 250.467 540.056 251 538.38 251C536.78 251 535.714 250.429 535.181 249.286C534.724 248.144 534.495 247.001 534.495 245.858ZM609.677 236.146C608.077 236.146 606.516 236.413 604.992 236.946C603.469 237.479 601.945 238.089 600.422 238.774C598.898 239.46 597.337 240.069 595.737 240.603C594.214 241.136 592.576 241.402 590.824 241.402C587.473 241.402 584.464 240.869 581.798 239.803C579.132 238.66 576.847 237.099 574.942 235.118C573.114 233.138 571.667 230.814 570.601 228.148C569.61 225.406 569.115 222.436 569.115 219.236C569.115 215.047 569.915 211.543 571.515 208.725C573.114 205.83 575.209 203.507 577.799 201.755C580.465 200.003 583.474 198.784 586.825 198.099C590.177 197.337 593.604 196.956 597.108 196.956C600.993 197.108 604.497 198.403 607.62 200.841C610.743 203.202 613.523 206.287 615.961 210.096C618.475 213.904 620.646 218.208 622.474 223.007C624.302 227.729 625.787 232.566 626.93 237.518C628.148 242.469 629.024 247.268 629.558 251.914C630.091 256.561 630.319 260.674 630.243 264.254C630.167 267.91 629.824 270.805 629.215 272.938C628.682 275.07 627.844 276.022 626.701 275.794C624.645 275.489 623.083 274.575 622.017 273.052C621.026 271.604 620.227 269.776 619.617 267.567C619.084 265.358 618.741 262.921 618.589 260.255C618.513 257.665 618.437 255.037 618.36 252.371C618.284 249.781 618.132 247.306 617.903 244.944C617.751 242.507 617.408 240.526 616.875 239.003C616.342 237.403 615.504 236.299 614.361 235.689C613.219 235.08 611.657 235.232 609.677 236.146ZM578.827 220.379C578.827 221.674 579.132 222.969 579.741 224.264C580.427 225.559 581.303 226.739 582.369 227.806C583.436 228.872 584.616 229.748 585.911 230.434C587.206 231.119 588.501 231.462 589.796 231.462C591.091 231.462 592.767 231.195 594.823 230.662C596.88 230.053 598.898 229.215 600.879 228.148C602.859 227.006 604.573 225.711 606.021 224.264C607.468 222.74 608.191 221.064 608.191 219.236C608.191 216.646 608.039 214.399 607.734 212.495C607.43 210.591 606.896 209.029 606.135 207.811C605.373 206.592 604.269 205.716 602.821 205.183C601.374 204.573 599.47 204.269 597.108 204.269C595.204 204.269 593.186 204.726 591.053 205.64C588.92 206.478 586.939 207.658 585.111 209.182C583.359 210.705 581.874 212.457 580.655 214.438C579.437 216.342 578.827 218.322 578.827 220.379ZM631.843 204.383C631.843 203.926 631.843 203.126 631.843 201.983C631.919 200.765 631.957 199.508 631.957 198.213C631.957 196.918 631.957 195.737 631.957 194.671C632.033 193.528 632.071 192.729 632.071 192.271C632.604 191.357 633.214 190.481 633.899 189.644C634.661 188.729 635.423 188.12 636.185 187.815C637.022 187.435 637.898 187.358 638.812 187.587C639.803 187.815 640.793 188.577 641.783 189.872V190.786V192.271C641.707 192.652 641.555 193.566 641.326 195.014C641.098 196.385 640.831 197.908 640.526 199.584C640.222 201.26 639.917 202.821 639.612 204.269C639.384 205.64 639.27 206.516 639.27 206.896C639.27 208.344 639.422 210.172 639.727 212.381C640.031 214.514 640.45 216.761 640.983 219.122C641.593 221.483 642.316 223.845 643.154 226.206C644.068 228.567 645.135 230.7 646.354 232.604C647.572 234.433 648.905 235.956 650.353 237.175C651.876 238.394 653.628 239.003 655.608 239.003C658.046 239.003 660.179 238.355 662.007 237.061C663.911 235.766 665.549 234.09 666.92 232.033C668.291 229.977 669.396 227.653 670.233 225.063C671.147 222.474 671.871 219.884 672.404 217.294C672.938 214.628 673.318 212.076 673.547 209.639C673.775 207.201 673.89 205.068 673.89 203.24C673.89 201.412 673.737 199.698 673.433 198.099C673.204 196.423 672.899 194.785 672.519 193.186C672.138 191.586 671.795 190.024 671.49 188.501C671.262 186.901 671.147 185.302 671.147 183.702C671.147 182.255 671.643 181.227 672.633 180.617C673.699 180.008 674.88 179.703 676.175 179.703C677.774 179.703 679.069 180.198 680.06 181.188C681.05 182.103 681.812 183.283 682.345 184.73C682.954 186.178 683.335 187.854 683.487 189.758C683.716 191.586 683.83 193.414 683.83 195.242C683.83 197.07 683.792 198.822 683.716 200.498C683.64 202.098 683.602 203.393 683.602 204.383C683.602 206.973 683.411 209.905 683.03 213.181C682.649 216.456 681.964 219.846 680.974 223.35C680.06 226.777 678.879 230.167 677.432 233.519C676.061 236.87 674.347 239.879 672.29 242.545C670.31 245.135 667.986 247.229 665.32 248.829C662.73 250.429 659.798 251.229 656.522 251.229C653.095 251.229 650.086 250.429 647.496 248.829C644.906 247.153 642.697 244.982 640.869 242.316C639.117 239.574 637.632 236.489 636.413 233.062C635.194 229.634 634.242 226.206 633.557 222.778C632.947 219.351 632.49 216.037 632.186 212.838C631.957 209.562 631.843 206.744 631.843 204.383ZM690.571 219.236C690.571 215.123 691.066 211.01 692.057 206.896C693.047 202.783 694.608 199.089 696.741 195.813C698.95 192.538 701.769 189.872 705.196 187.815C708.7 185.759 712.928 184.73 717.879 184.73C720.697 184.73 723.173 185.264 725.306 186.33C727.438 187.32 729.229 188.653 730.676 190.329C732.123 192.005 733.189 193.985 733.875 196.271C734.637 198.479 735.018 200.803 735.018 203.24C735.018 207.125 734.104 210.896 732.275 214.552C730.523 218.208 728.124 221.445 725.077 224.264C722.106 227.006 718.679 229.101 714.794 230.548C710.909 231.919 706.948 232.224 702.911 231.462C702.987 233.671 703.711 235.461 705.082 236.832C706.529 238.127 708.243 239.117 710.224 239.803C712.204 240.488 714.261 240.945 716.394 241.174C718.526 241.326 720.431 241.402 722.106 241.402C723.858 241.402 725.496 241.25 727.02 240.945C728.543 240.641 730.066 240.298 731.59 239.917C733.113 239.536 734.637 239.193 736.16 238.889C737.76 238.584 739.436 238.432 741.188 238.432C741.873 238.432 742.559 238.47 743.244 238.546C743.93 238.622 744.577 238.812 745.187 239.117C745.796 239.346 746.291 239.765 746.672 240.374C747.053 240.907 747.243 241.593 747.243 242.431C747.243 243.878 746.71 245.097 745.644 246.087C744.577 247.001 743.206 247.801 741.53 248.486C739.931 249.172 738.141 249.705 736.16 250.086C734.18 250.391 732.237 250.657 730.333 250.886C728.505 251.038 726.791 251.114 725.191 251.114C723.668 251.19 722.525 251.229 721.764 251.229C716.889 251.229 712.509 250.467 708.624 248.943C704.739 247.344 701.464 245.173 698.798 242.431C696.132 239.612 694.075 236.261 692.628 232.376C691.257 228.415 690.571 224.035 690.571 219.236ZM702.683 211.81C702.683 214.476 703.025 216.418 703.711 217.637C704.473 218.855 706.263 219.465 709.081 219.465C711.062 219.465 713.004 219.122 714.908 218.437C716.812 217.675 718.526 216.646 720.05 215.352C721.649 214.057 722.906 212.533 723.82 210.781C724.734 209.029 725.191 207.125 725.191 205.068C725.191 203.926 725.077 202.745 724.849 201.526C724.696 200.308 724.315 199.203 723.706 198.213C723.097 197.146 722.297 196.309 721.307 195.699C720.393 195.014 719.174 194.671 717.65 194.671C715.365 194.671 713.271 195.204 711.366 196.271C709.538 197.261 707.977 198.594 706.682 200.27C705.387 201.869 704.396 203.697 703.711 205.754C703.025 207.734 702.683 209.753 702.683 211.81ZM721.192 163.821L708.853 182.103C707.938 183.169 707.024 183.626 706.11 183.474C705.196 183.321 704.473 182.902 703.939 182.217C703.482 181.455 703.216 180.541 703.14 179.475C703.14 178.332 703.559 177.228 704.396 176.161C704.625 175.933 704.854 175.628 705.082 175.247C705.387 174.79 705.577 174.485 705.653 174.333C706.415 173.114 707.291 171.743 708.281 170.22C709.271 168.696 710.3 167.287 711.366 165.992C712.433 164.621 713.461 163.44 714.451 162.45C715.518 161.384 716.508 160.698 717.422 160.394C718.336 160.013 719.098 160.089 719.707 160.622C720.393 161.079 720.888 162.146 721.192 163.821Z" fill="black"/>
</svg>
